<?xml version="1.0" standalone="no"?>
<!DOCTYPE svg PUBLIC "-//W3C//DTD SVG 20010904//EN"
 "http://www.w3.org/TR/2001/REC-SVG-20010904/DTD/svg10.dtd">
<svg version="1.0" xmlns="http://www.w3.org/2000/svg"
 width="200.000000pt" height="200.000000pt" viewBox="0 0 200 200"
 preserveAspectRatio="xMidYMid meet">
<g transform="translate(0.000000,200.000000) scale(0.100000,-0.100000)"
fill="#000000" stroke="none">
  <!-- 単色シルエット化（元の形状を黒で塗りつぶし） -->
  <path d="M1000 1200 c-90 -90 -90 -210 0 -300 90 90 90 210 0 300z"/>
  <path d="M1200 1000 c-90 90 -210 90 -300 0 90 -90 210 -90 300 0z"/>
  <path d="M1000 800 c90 90 90 210 0 300 -90 -90 -90 -210 0 -300z"/>
  <path d="M800 1000 c90 -90 210 -90 300 0 -90 90 -210 90 -300 0z"/>
</g>
</svg>
